<svg xmlns="http://www.w3.org/2000/svg" width="128" height="128" viewBox="0 0 128 128" role="img" aria-labelledby="title desc">
  <title id="title">VG Kontur grid logo</title>
  <desc id="desc">VG monogram aligned to an architectural planning grid.</desc>
  <g fill="none" stroke-linecap="square" stroke-linejoin="miter">
    <path d="M24 24h80M24 44h80M24 64h80M24 84h80M24 104h80M24 24v80M44 24v80M64 24v80M84 24v80M104 24v80" stroke="#d7ded5" stroke-width="1"/>
    <path d="M24 24h80v80H24V24Z" stroke="#2f6f52" stroke-width="3"/>
    <path d="M34 38l18 50 18-50" stroke="#2c302d" stroke-width="7"/>
    <path d="M96 38H78L64 52v22l14 14h20V66H82" stroke="#2c302d" stroke-width="7"/>
    <path d="M64 24v16M104 64H88M44 104V88" stroke="#2f6f52" stroke-width="3"/>
  </g>
</svg>
